STARTFONT 2.1
COMMENT Generated from X font `-adobe-helvetica-bold-r-normal--34-240-100-100-p-182-iso8859-1' by getbdf
FONT -adobe-helvetica-bold-r-normal--34-240-100-100-p-182-iso8859-1
SIZE 24 100 100
FONTBOUNDINGBOX 32 38 -1 -7
STARTPROPERTIES 30
FONT_ASCENT 28
FONT_DESCENT 7
DEFAULT_CHAR 0
FOUNDRY "Adobe"
FAMILY_NAME "Helvetica"
WEIGHT_NAME "Bold"
SLANT "R"
SETWIDTH_NAME "Normal"
ADD_STYLE_NAME ""
PIXEL_SIZE 34
POINT_SIZE 240
RESOLUTION_X 100
RESOLUTION_Y 100
SPACING "P"
AVERAGE_WIDTH 182
CHARSET_REGISTRY "ISO8859"
CHARSET_ENCODING "1"
CAP_HEIGHT 25
X_HEIGHT 18
FACE_NAME "Helvetica Bold"
COPYRIGHT "Copyright (c) 1984, 1987 Adobe Systems Incorporated. All Rights Reserved. Copyright (c) 1988, 1991 Digital Equipment Corporation. All Rights Reserved."
NOTICE "Helvetica is a trademark of Linotype-Hell AG and/or its subsidiaries.  "
_DEC_DEVICE_FONTNAMES 755
RELATIVE_SETWIDTH 50
RELATIVE_WEIGHT 70
FULL_NAME "Helvetica Bold"
FONT "-Adobe-Helvetica-Bold-R-Normal--34-240-100-100-P-182-ISO8859-1"
WEIGHT 10
RESOLUTION 138
QUAD_WIDTH 20
ENDPROPERTIES
CHARS 192
STARTCHAR 0
ENCODING 0
SWIDTH 690 0
DWIDTH 23 0
BBX 19 25 2 0
BITMAP
aaaaa0
000000
800020
000000
800020
000000
800020
000000
800020
000000
800020
000000
800020
000000
800020
000000
800020
000000
800020
000000
800020
000000
800020
000000
aaaaa0
ENDCHAR
STARTCHAR 32
ENCODING 32
SWIDTH 270 0
DWIDTH 9 0
BBX 1 1 0 0
BITMAP
00
ENDCHAR
STARTCHAR 33
ENCODING 33
SWIDTH 330 0
DWIDTH 11 0
BBX 5 25 3 0
BITMAP
f8
f8
f8
f8
f8
f8
f8
f8
f8
f8
f8
70
70
70
70
70
70
70
00
00
f8
f8
f8
f8
f8
ENDCHAR
STARTCHAR 34
ENCODING 34
SWIDTH 480 0
DWIDTH 16 0
BBX 11 9 2 16
BITMAP
f1e0
f1e0
f1e0
f1e0
f1e0
f1e0
f1e0
60c0
60c0
ENDCHAR
STARTCHAR 35
ENCODING 35
SWIDTH 570 0
DWIDTH 19 0
BBX 18 25 0 -1
BITMAP
03c700
03c700
038f00
038f00
078f00
078e00
078e00
7fffc0
7fffc0
7fffc0
7fffc0
0f1c00
0e1c00
0e1c00
0e3c00
ffff80
ffff80
ffff80
ffff80
1c7800
3c7800
3c7000
3c7000
38f000
38f000
ENDCHAR
STARTCHAR 36
ENCODING 36
SWIDTH 540 0
DWIDTH 18 0
BBX 16 28 1 -3
BITMAP
0180
0180
0ff0
3ffc
7ffe
fdbe
f99f
f19f
f18f
f980
ff80
7fc0
3ff0
0ffc
01fe
01ff
019f
018f
f18f
f19f
f99f
7ffe
7ffe
3ff8
07e0
0180
0180
0180
ENDCHAR
STARTCHAR 37
ENCODING 37
SWIDTH 870 0
DWIDTH 29 0
BBX 26 23 1 0
BITMAP
0e003000
3f807000
7fc06000
71c0e000
e0e0c000
e0e1c000
e0e38000
e0e38000
71c70000
7fc60000
3f8e0000
0e0c1c00
001c7f00
0018ff80
0038e380
0031c1c0
0071c1c0
0061c1c0
00e1c1c0
01c0e380
01c0ff80
03807f00
03001c00
ENDCHAR
STARTCHAR 38
ENCODING 38
SWIDTH 720 0
DWIDTH 24 0
BBX 20 25 2 0
BITMAP
03e000
0ff800
1ffc00
1ffc00
1e3c00
3e3c00
3e3c00
1f3c00
1ff800
0ff800
0ff000
0fe000
3ff1e0
7ff1e0
7cf9c0
f8ffc0
f07fc0
f03f80
f01f00
f80f80
fc3fc0
7fffe0
7ffbe0
1ff1f0
07c000
ENDCHAR
STARTCHAR 39
ENCODING 39
SWIDTH 240 0
DWIDTH 8 0
BBX 4 9 2 16
BITMAP
f0
f0
f0
f0
f0
f0
f0
60
60
ENDCHAR
STARTCHAR 40
ENCODING 40
SWIDTH 330 0
DWIDTH 11 0
BBX 8 31 1 -6
BITMAP
07
0f
1e
1e
3c
3c
38
78
78
78
f0
f0
f0
f0
f0
f0
f0
f0
f0
f8
78
78
78
78
3c
3c
1c
1e
0e
0f
07
ENDCHAR
STARTCHAR 41
ENCODING 41
SWIDTH 330 0
DWIDTH 11 0
BBX 8 31 1 -6
BITMAP
e0
f0
78
78
3c
3c
1c
1e
1e
1e
0f
0f
0f
0f
0f
0f
0f
0f
0f
1f
1e
1e
1e
1c
3c
3c
38
78
70
f0
e0
ENDCHAR
STARTCHAR 42
ENCODING 42
SWIDTH 390 0
DWIDTH 13 0
BBX 10 11 1 13
BITMAP
0c00
0c00
4c80
edc0
ffc0
7f80
1e00
3f00
7f80
7380
2100
ENDCHAR
STARTCHAR 43
ENCODING 43
SWIDTH 570 0
DWIDTH 19 0
BBX 16 16 1 0
BITMAP
03c0
03c0
03c0
03c0
03c0
03c0
ffff
ffff
ffff
ffff
03c0
03c0
03c0
03c0
03c0
03c0
ENDCHAR
STARTCHAR 44
ENCODING 44
SWIDTH 270 0
DWIDTH 9 0
BBX 5 11 2 -6
BITMAP
f8
f8
f8
f8
f8
18
18
38
70
e0
80
ENDCHAR
STARTCHAR 45
ENCODING 45
SWIDTH 330 0
DWIDTH 11 0
BBX 9 5 1 7
BITMAP
ff80
ff80
ff80
ff80
ff80
ENDCHAR
STARTCHAR 46
ENCODING 46
SWIDTH 270 0
DWIDTH 9 0
BBX 5 5 2 0
BITMAP
f8
f8
f8
f8
f8
ENDCHAR
STARTCHAR 47
ENCODING 47
SWIDTH 270 0
DWIDTH 9 0
BBX 8 25 0 0
BITMAP
03
03
03
03
06
06
06
0e
0c
0c
0c
1c
18
18
18
30
30
30
70
60
60
60
c0
c0
c0
ENDCHAR
STARTCHAR 48
ENCODING 48
SWIDTH 540 0
DWIDTH 18 0
BBX 15 24 1 0
BITMAP
0fe0
1ff0
3ff8
7ffc
7c7c
f83e
f83e
f83e
f01e
f01e
f01e
f01e
f01e
f01e
f01e
f01e
f83e
f83e
f83e
7c7c
7ffc
3ff8
1ff0
0fe0
ENDCHAR
STARTCHAR 49
ENCODING 49
SWIDTH 540 0
DWIDTH 18 0
BBX 10 23 2 0
BITMAP
01c0
03c0
07c0
1fc0
ffc0
ffc0
ffc0
03c0
03c0
03c0
03c0
03c0
03c0
03c0
03c0
03c0
03c0
03c0
03c0
03c0
03c0
03c0
03c0
ENDCHAR
STARTCHAR 50
ENCODING 50
SWIDTH 540 0
DWIDTH 18 0
BBX 16 24 1 0
BITMAP
0fe0
3ff8
7ffc
7ffe
fc7e
f83f
f81f
f01f
f01f
003f
003e
007e
00fc
01f8
07f0
0fe0
1f80
3f00
7e00
fc00
ffff
ffff
ffff
ffff
ENDCHAR
STARTCHAR 51
ENCODING 51
SWIDTH 540 0
DWIDTH 18 0
BBX 16 24 1 0
BITMAP
0fe0
3ff8
7ffc
7ffc
f83e
f03e
f01e
f01e
003e
007c
03f8
03f0
03fc
007e
003f
001f
f01f
f01f
f03f
f83e
7ffe
7ffc
3ff8
0fe0
ENDCHAR
STARTCHAR 52
ENCODING 52
SWIDTH 540 0
DWIDTH 18 0
BBX 16 24 1 0
BITMAP
00f8
00f8
01f8
03f8
03f8
07f8
0f78
0e78
1e78
1c78
3c78
7878
7078
f078
e078
ffff
ffff
ffff
ffff
0078
0078
0078
0078
0078
ENDCHAR
STARTCHAR 53
ENCODING 53
SWIDTH 540 0
DWIDTH 18 0
BBX 15 24 1 0
BITMAP
3ffc
3ffc
3ffc
3ffc
3800
7800
7800
7800
7be0
7ff8
7ffc
7ffc
787e
003e
003e
001e
001e
f03e
f03e
f87c
7ffc
7ff8
3ff0
0fc0
ENDCHAR
STARTCHAR 54
ENCODING 54
SWIDTH 540 0
DWIDTH 18 0
BBX 15 24 1 0
BITMAP
07e0
1ff8
3ffc
3ffe
7c3e
781e
f000
f000
f3e0
f7f8
fffc
fffc
fc7e
f83e
f01e
f01e
f01e
f01e
f83e
7c7c
7ffc
3ff8
1ff0
07c0
ENDCHAR
STARTCHAR 55
ENCODING 55
SWIDTH 540 0
DWIDTH 18 0
BBX 16 24 1 0
BITMAP
ffff
ffff
ffff
ffff
001e
003e
003c
0078
00f8
00f0
01f0
01e0
03e0
03c0
07c0
07c0
0780
0f80
0f80
0f80
1f00
1f00
1f00
1f00
ENDCHAR
STARTCHAR 56
ENCODING 56
SWIDTH 540 0
DWIDTH 18 0
BBX 17 24 0 0
BITMAP
07f000
1ffc00
3ffe00
3e3e00
7c1f00
780f00
780f00
780f00
7c1f00
3e3e00
1ffc00
1ffc00
3ffe00
7c1f00
f80f80
f00780
f00780
f00780
f80f80
7e3f00
7ffe00
3ffe00
1ffc00
07f000
ENDCHAR
STARTCHAR 57
ENCODING 57
SWIDTH 540 0
DWIDTH 18 0
BBX 15 24 1 0
BITMAP
07c0
1ff0
3ff8
7ffc
7c7c
f83e
f01e
f01e
f01e
f01e
f83e
fc7e
7ffe
7ffe
3fde
079e
001e
001e
f03c
f87c
7ff8
7ff8
1ff0
07c0
ENDCHAR
STARTCHAR 58
ENCODING 58
SWIDTH 330 0
DWIDTH 11 0
BBX 5 17 3 0
BITMAP
f8
f8
f8
f8
f8
00
00
00
00
00
00
00
f8
f8
f8
f8
f8
ENDCHAR
STARTCHAR 59
ENCODING 59
SWIDTH 330 0
DWIDTH 11 0
BBX 5 23 3 -6
BITMAP
f8
f8
f8
f8
f8
00
00
00
00
00
00
00
f8
f8
f8
f8
f8
18
18
38
70
e0
80
ENDCHAR
STARTCHAR 60
ENCODING 60
SWIDTH 570 0
DWIDTH 19 0
BBX 16 16 1 0
BITMAP
0003
001f
007f
03ff
0ffe
7ff8
ffc0
fe00
fe00
ffc0
7ff0
0ffe
03ff
007f
001f
0003
ENDCHAR
STARTCHAR 61
ENCODING 61
SWIDTH 570 0
DWIDTH 19 0
BBX 15 12 2 2
BITMAP
fffe
fffe
fffe
fffe
0000
0000
0000
0000
fffe
fffe
fffe
fffe
ENDCHAR
STARTCHAR 62
ENCODING 62
SWIDTH 570 0
DWIDTH 19 0
BBX 16 16 1 0
BITMAP
c000
f000
fe00
ffc0
7ff0
1ffe
03ff
007f
007f
03ff
1ffe
7ff0
ffc0
fe00
f000
c000
ENDCHAR
STARTCHAR 63
ENCODING 63
SWIDTH 600 0
DWIDTH 20 0
BBX 16 25 2 0
BITMAP
0fe0
3ff8
7ffc
7ffe
fc7e
f83f
f81f
f01f
f01f
003f
007e
00fe
01fc
01f8
03e0
03c0
07c0
07c0
0000
0000
07c0
07c0
07c0
07c0
07c0
ENDCHAR
STARTCHAR 64
ENCODING 64
SWIDTH 990 0
DWIDTH 33 0
BBX 29 30 1 -5
BITMAP
000fe000
007ffc00
01fffe00
03f03f80
07c007c0
0f0003c0
1e0001e0
1c0000f0
3c07dc70
381ffc70
703cfc38
70787838
f0f03838
e0e03838
e1e03838
e1c07078
e1c07070
e1c07070
e1e0f0e0
f1e1f1e0
70ffffc0
787f3f80
383e1e00
3c000000
1e000000
0f800000
0ff03c00
03fffc00
01fffc00
007fe000
ENDCHAR
STARTCHAR 65
ENCODING 65
SWIDTH 690 0
DWIDTH 23 0
BBX 22 25 0 0
BITMAP
00fc00
00fc00
01fe00
01fe00
01fe00
03ff00
03ff00
03ff00
07cf80
07cf80
07cf80
0f8780
0f87c0
0f87c0
1f03c0
1f03e0
1fffe0
1fffe0
3ffff0
3ffff0
3e01f0
7c00f8
7c00f8
fc00fc
f8007c
ENDCHAR
STARTCHAR 66
ENCODING 66
SWIDTH 720 0
DWIDTH 24 0
BBX 19 25 3 0
BITMAP
fffc00
ffff00
ffff80
ffff80
f80fc0
f807c0
f807c0
f807c0
f807c0
f80f80
ffff00
ffff00
ffff80
ffffc0
f807c0
f803e0
f803e0
f803e0
f803e0
f803e0
f807e0
ffffc0
ffffc0
ffff80
fffe00
ENDCHAR
STARTCHAR 67
ENCODING 67
SWIDTH 720 0
DWIDTH 24 0
BBX 21 25 1 0
BITMAP
01fe00
07ff80
0fffc0
1fffe0
3f87f0
3e01f0
7c01f8
7c00f8
7c00f8
f80000
f80000
f80000
f80000
f80000
f80000
f80000
7c00f8
7c00f8
7e01f8
3e01f0
3f87f0
1fffe0
0fffc0
07ff80
01fe00
ENDCHAR
STARTCHAR 68
ENCODING 68
SWIDTH 720 0
DWIDTH 24 0
BBX 21 25 2 0
BITMAP
fff800
ffff00
ffff80
ffffc0
f80fe0
f803e0
f803f0
f801f0
f801f8
f800f8
f800f8
f800f8
f800f8
f800f8
f800f8
f800f8
f801f8
f801f0
f803f0
f803e0
f80fe0
ffffc0
ffff80
ffff00
fff800
ENDCHAR
STARTCHAR 69
ENCODING 69
SWIDTH 660 0
DWIDTH 22 0
BBX 18 25 2 0
BITMAP
ffff80
ffff80
ffff80
ffff80
f80000
f80000
f80000
f80000
f80000
f80000
ffff00
ffff00
ffff00
ffff00
f80000
f80000
f80000
f80000
f80000
f80000
f80000
ffffc0
ffffc0
ffffc0
ffffc0
ENDCHAR
STARTCHAR 70
ENCODING 70
SWIDTH 600 0
DWIDTH 20 0
BBX 16 25 2 0
BITMAP
ffff
ffff
ffff
ffff
f800
f800
f800
f800
f800
f800
fffe
fffe
fffe
fffe
f800
f800
f800
f800
f800
f800
f800
f800
f800
f800
f800
ENDCHAR
STARTCHAR 71
ENCODING 71
SWIDTH 750 0
DWIDTH 25 0
BBX 22 25 1 0
BITMAP
00ff00
03ffc0
0fffe0
1ffff0
1fc3f8
3f00f8
7e007c
7c007c
fc0000
f80000
f80000
f80000
f80ffc
f80ffc
f80ffc
f80ffc
fc007c
7c007c
7e007c
7e00fc
3f83fc
3ffffc
1fffdc
07ff9c
03fe1c
ENDCHAR
STARTCHAR 72
ENCODING 72
SWIDTH 690 0
DWIDTH 23 0
BBX 19 25 2 0
BITMAP
f803e0
f803e0
f803e0
f803e0
f803e0
f803e0
f803e0
f803e0
f803e0
f803e0
ffffe0
ffffe0
ffffe0
ffffe0
f803e0
f803e0
f803e0
f803e0
f803e0
f803e0
f803e0
f803e0
f803e0
f803e0
f803e0
ENDCHAR
STARTCHAR 73
ENCODING 73
SWIDTH 270 0
DWIDTH 9 0
BBX 5 25 2 0
BITMAP
f8
f8
f8
f8
f8
f8
f8
f8
f8
f8
f8
f8
f8
f8
f8
f8
f8
f8
f8
f8
f8
f8
f8
f8
f8
ENDCHAR
STARTCHAR 74
ENCODING 74
SWIDTH 540 0
DWIDTH 18 0
BBX 15 25 1 0
BITMAP
003e
003e
003e
003e
003e
003e
003e
003e
003e
003e
003e
003e
003e
003e
003e
f83e
f83e
f83e
f83e
f83e
fc7e
fffc
7ffc
3ff8
0fe0
ENDCHAR
STARTCHAR 75
ENCODING 75
SWIDTH 720 0
DWIDTH 24 0
BBX 20 25 2 0
BITMAP
f807e0
f807e0
f80fc0
f81f80
f83f00
f87e00
f8fc00
f8f800
f9f800
fbf000
ffe000
ffe000
fff000
fff000
fff800
fcfc00
f87e00
f87e00
f83f00
f81f80
f80f80
f80fc0
f807e0
f803f0
f803f0
ENDCHAR
STARTCHAR 76
ENCODING 76
SWIDTH 600 0
DWIDTH 20 0
BBX 16 25 2 0
BITMAP
f800
f800
f800
f800
f800
f800
f800
f800
f800
f800
f800
f800
f800
f800
f800
f800
f800
f800
f800
f800
f800
ffff
ffff
ffff
ffff
ENDCHAR
STARTCHAR 77
ENCODING 77
SWIDTH 810 0
DWIDTH 27 0
BBX 23 25 2 0
BITMAP
fe00fe
fe00fe
ff01fe
ff01fe
ff01fe
ff01fe
ff83fe
ff83fe
fb83be
fb83be
fbc7be
fbc7be
fbc7be
f9c73e
f9ef3e
f9ef3e
f9ef3e
f9ef3e
f8ee3e
f8fe3e
f8fe3e
f8fe3e
f87c3e
f87c3e
f87c3e
ENDCHAR
STARTCHAR 78
ENCODING 78
SWIDTH 720 0
DWIDTH 24 0
BBX 19 25 2 0
BITMAP
f803e0
fc03e0
fc03e0
fe03e0
fe03e0
ff03e0
ff03e0
ff83e0
ffc3e0
fbc3e0
fbe3e0
f9e3e0
f9f3e0
f8f3e0
f8fbe0
f87be0
f83fe0
f83fe0
f81fe0
f81fe0
f80fe0
f80fe0
f807e0
f807e0
f803e0
ENDCHAR
STARTCHAR 79
ENCODING 79
SWIDTH 750 0
DWIDTH 25 0
BBX 23 25 1 0
BITMAP
01ff00
07ffc0
0fffe0
1ffff0
3fc7f8
3f01f8
7e00fc
7c007c
7c007c
f8003e
f8003e
f8003e
f8003e
f8003e
f8003e
f8003e
7c007c
7c007c
7e00fc
3f01f8
3fc7f8
1ffff0
0fffe0
07ffc0
01ff00
ENDCHAR
STARTCHAR 80
ENCODING 80
SWIDTH 660 0
DWIDTH 22 0
BBX 18 25 2 0
BITMAP
fff800
fffe00
ffff00
ffff80
f81f80
f80fc0
f807c0
f807c0
f807c0
f807c0
f80fc0
f81f80
ffff80
ffff00
fffc00
fff000
f80000
f80000
f80000
f80000
f80000
f80000
f80000
f80000
f80000
ENDCHAR
STARTCHAR 81
ENCODING 81
SWIDTH 780 0
DWIDTH 26 0
BBX 23 26 1 -1
BITMAP
01ff00
07ffc0
0fffe0
1ffff0
3fc7f8
3f01f8
7e00fc
7c007c
fc007e
f8003e
f8003e
f8003e
f8003e
f8003e
f8003e
f8023e
fc073e
7c0fbc
7e0ffc
3f07f8
3fc3f0
1ffff8
0ffffc
07fffe
01ff3c
000018
ENDCHAR
STARTCHAR 82
ENCODING 82
SWIDTH 720 0
DWIDTH 24 0
BBX 19 25 2 0
BITMAP
fffe00
ffff80
ffffc0
ffffc0
f807e0
f803e0
f803e0
f803e0
f803e0
f807c0
f80fc0
ffff80
ffff00
ffff00
ffff80
f80fc0
f807c0
f807c0
f807c0
f807c0
f807c0
f807c0
f807c0
f807e0
f803e0
ENDCHAR
STARTCHAR 83
ENCODING 83
SWIDTH 660 0
DWIDTH 22 0
BBX 19 25 1 0
BITMAP
03f800
0ffe00
1fff00
3fff80
3e1f80
7c07c0
7807c0
7803c0
7c0000
7f0000
3ff000
3ffe00
1fff80
03ffc0
003fc0
0007e0
0003e0
f803e0
f803e0
7c03e0
7e0fc0
3fffc0
1fff80
0fff00
03f800
ENDCHAR
STARTCHAR 84
ENCODING 84
SWIDTH 600 0
DWIDTH 20 0
BBX 19 25 0 0
BITMAP
ffffe0
ffffe0
ffffe0
ffffe0
01f000
01f000
01f000
01f000
01f000
01f000
01f000
01f000
01f000
01f000
01f000
01f000
01f000
01f000
01f000
01f000
01f000
01f000
01f000
01f000
01f000
ENDCHAR
STARTCHAR 85
ENCODING 85
SWIDTH 720 0
DWIDTH 24 0
BBX 19 25 2 0
BITMAP
f803e0
f803e0
f803e0
f803e0
f803e0
f803e0
f803e0
f803e0
f803e0
f803e0
f803e0
f803e0
f803e0
f803e0
f803e0
f803e0
f803e0
f803e0
f803e0
fc07e0
7f1fc0
7fffc0
3fff80
1fff00
07fc00
ENDCHAR
STARTCHAR 86
ENCODING 86
SWIDTH 660 0
DWIDTH 22 0
BBX 20 25 1 0
BITMAP
f801f0
f801f0
7c03e0
7c03e0
7c03e0
3c03c0
3e07c0
3e07c0
1e0780
1f0f80
1f0f80
0f0f00
0f0f00
0f0f00
079e00
079e00
079e00
07fe00
03fc00
03fc00
03fc00
01f800
01f800
01f800
00f000
ENDCHAR
STARTCHAR 87
ENCODING 87
SWIDTH 930 0
DWIDTH 31 0
BBX 29 25 1 0
BITMAP
f81f81f8
f81f81f8
781f81f0
781f81f0
781f81f0
7c3fc3e0
7c3fc3e0
7c3fc3e0
3c3fc3e0
3c39c3c0
3e79e3c0
3e79e7c0
1e79e7c0
1e79e780
1e70e780
1e70e780
0ff0ff00
0ff0ff00
0ff0ff00
0fe07f00
07e07e00
07e07e00
07e07e00
03c03c00
03c03c00
ENDCHAR
STARTCHAR 88
ENCODING 88
SWIDTH 660 0
DWIDTH 22 0
BBX 20 25 1 0
BITMAP
fc03e0
7e07e0
7e07c0
3f0fc0
1f0f80
1f9f00
0f9f00
0fbe00
07fe00
07fc00
03fc00
03f800
01f800
03f800
03fc00
07fc00
07fe00
0fbf00
1f9f00
1f1f80
3f0f80
3e0fc0
7e07c0
fc07e0
fc03f0
ENDCHAR
STARTCHAR 89
ENCODING 89
SWIDTH 660 0
DWIDTH 22 0
BBX 20 25 1 0
BITMAP
fc03f0
fc03e0
7e07e0
3e07c0
3f0fc0
3f0f80
1f0f80
1f9f00
0f9f00
0ffe00
07fe00
07fc00
03fc00
03f800
03f800
01f000
01f000
01f000
01f000
01f000
01f000
01f000
01f000
01f000
01f000
ENDCHAR
STARTCHAR 90
ENCODING 90
SWIDTH 600 0
DWIDTH 20 0
BBX 17 25 1 0
BITMAP
ffff80
ffff80
ffff80
ffff80
000f80
001f80
003f00
007e00
007c00
00fc00
01f800
03f000
03f000
07e000
0fc000
0f8000
1f8000
3f0000
7e0000
7e0000
fc0000
ffff80
ffff80
ffff80
ffff80
ENDCHAR
STARTCHAR 91
ENCODING 91
SWIDTH 330 0
DWIDTH 11 0
BBX 8 31 2 -6
BITMAP
ff
ff
ff
f0
f0
f0
f0
f0
f0
f0
f0
f0
f0
f0
f0
f0
f0
f0
f0
f0
f0
f0
f0
f0
f0
f0
f0
f0
ff
ff
ff
ENDCHAR
STARTCHAR 92
ENCODING 92
SWIDTH 270 0
DWIDTH 9 0
BBX 9 25 0 0
BITMAP
c000
c000
e000
6000
6000
7000
7000
3000
3800
3800
1800
1c00
1c00
0c00
0c00
0e00
0e00
0600
0700
0700
0300
0380
0380
0180
0180
ENDCHAR
STARTCHAR 93
ENCODING 93
SWIDTH 330 0
DWIDTH 11 0
BBX 8 31 0 -6
BITMAP
ff
ff
ff
0f
0f
0f
0f
0f
0f
0f
0f
0f
0f
0f
0f
0f
0f
0f
0f
0f
0f
0f
0f
0f
0f
0f
0f
0f
ff
ff
ff
ENDCHAR
STARTCHAR 94
ENCODING 94
SWIDTH 570 0
DWIDTH 19 0
BBX 14 14 2 9
BITMAP
0780
0fc0
0fc0
0fc0
1fe0
1fe0
3cf0
3cf0
3870
7878
7878
703c
f03c
f03c
ENDCHAR
STARTCHAR 95
ENCODING 95
SWIDTH 540 0
DWIDTH 18 0
BBX 18 2 0 -6
BITMAP
ffffc0
ffffc0
ENDCHAR
STARTCHAR 96
ENCODING 96
SWIDTH 330 0
DWIDTH 11 0
BBX 5 5 2 20
BITMAP
e0
f0
70
78
38
ENDCHAR
STARTCHAR 97
ENCODING 97
SWIDTH 540 0
DWIDTH 18 0
BBX 15 18 1 0
BITMAP
0ff0
3ffc
7ffc
7c3e
f81e
f81e
00fe
0ffe
3ffe
7f1e
f81e
f81e
f03e
f87e
fffe
fffe
7fde
3f1e
ENDCHAR
STARTCHAR 98
ENCODING 98
SWIDTH 600 0
DWIDTH 20 0
BBX 16 25 2 0
BITMAP
f000
f000
f000
f000
f000
f000
f000
f3f0
f7fc
fffc
fffe
fc3e
f81f
f01f
f00f
f00f
f00f
f00f
f01f
f01f
f83e
fffe
fffc
f7f8
f1f0
ENDCHAR
STARTCHAR 99
ENCODING 99
SWIDTH 540 0
DWIDTH 18 0
BBX 15 18 1 0
BITMAP
07e0
1ff8
3ffc
3ffc
7c3e
783e
f01e
f000
f000
f000
f000
f01e
f81e
7c3e
7ffc
3ff8
1ff8
07e0
ENDCHAR
STARTCHAR 100
ENCODING 100
SWIDTH 600 0
DWIDTH 20 0
BBX 16 25 1 0
BITMAP
000f
000f
000f
000f
000f
000f
000f
0fcf
1fef
3fff
7fff
7c3f
f81f
f00f
f00f
f00f
f00f
f00f
f00f
f81f
7c3f
7fff
3fef
1fef
0f8f
ENDCHAR
STARTCHAR 101
ENCODING 101
SWIDTH 540 0
DWIDTH 18 0
BBX 16 18 1 0
BITMAP
07e0
1ff8
3ffc
7ffe
7c3e
f81f
f01f
ffff
ffff
ffff
f000
f000
f81e
7c3e
7ffc
3ffc
1ff0
07c0
ENDCHAR
STARTCHAR 102
ENCODING 102
SWIDTH 330 0
DWIDTH 11 0
BBX 10 25 0 0
BITMAP
07c0
0fc0
1fc0
1f00
1e00
1e00
1e00
ffc0
ffc0
ffc0
1e00
1e00
1e00
1e00
1e00
1e00
1e00
1e00
1e00
1e00
1e00
1e00
1e00
1e00
1e00
ENDCHAR
STARTCHAR 103
ENCODING 103
SWIDTH 600 0
DWIDTH 20 0
BBX 16 25 1 -7
BITMAP
0fcf
1fef
3fff
7fff
7c3f
f81f
f81f
f00f
f00f
f00f
f00f
f81f
f81f
7c3f
7fff
3fff
1fef
0fcf
000f
f81f
f81f
7e7e
7ffe
3ffc
0ff0
ENDCHAR
STARTCHAR 104
ENCODING 104
SWIDTH 600 0
DWIDTH 20 0
BBX 15 25 2 0
BITMAP
f000
f000
f000
f000
f000
f000
f000
f1e0
f7f8
fffc
fffc
fc3e
f81e
f81e
f01e
f01e
f01e
f01e
f01e
f01e
f01e
f01e
f01e
f01e
f01e
ENDCHAR
STARTCHAR 105
ENCODING 105
SWIDTH 270 0
DWIDTH 9 0
BBX 4 25 2 0
BITMAP
f0
f0
f0
f0
00
00
f0
f0
f0
f0
f0
f0
f0
f0
f0
f0
f0
f0
f0
f0
f0
f0
f0
f0
f0
ENDCHAR
STARTCHAR 106
ENCODING 106
SWIDTH 270 0
DWIDTH 9 0
BBX 6 32 0 -7
BITMAP
3c
3c
3c
3c
00
00
3c
3c
3c
3c
3c
3c
3c
3c
3c
3c
3c
3c
3c
3c
3c
3c
3c
3c
3c
3c
3c
3c
fc
fc
f8
f8
ENDCHAR
STARTCHAR 107
ENCODING 107
SWIDTH 570 0
DWIDTH 19 0
BBX 15 25 2 0
BITMAP
f000
f000
f000
f000
f000
f000
f000
f03e
f07c
f0f8
f1f0
f3e0
f7c0
ff80
ffc0
ffc0
ffe0
ffe0
f9f0
f1f0
f0f8
f078
f07c
f03e
f03e
ENDCHAR
STARTCHAR 108
ENCODING 108
SWIDTH 270 0
DWIDTH 9 0
BBX 4 25 2 0
BITMAP
f0
f0
f0
f0
f0
f0
f0
f0
f0
f0
f0
f0
f0
f0
f0
f0
f0
f0
f0
f0
f0
f0
f0
f0
f0
ENDCHAR
STARTCHAR 109
ENCODING 109
SWIDTH 900 0
DWIDTH 30 0
BBX 24 18 2 0
BITMAP
f1e0f8
f7fbfe
fffffe
ffffff
fc7f1f
f83e0f
f03c0f
f03c0f
f03c0f
f03c0f
f03c0f
f03c0f
f03c0f
f03c0f
f03c0f
f03c0f
f03c0f
f03c0f
ENDCHAR
STARTCHAR 110
ENCODING 110
SWIDTH 600 0
DWIDTH 20 0
BBX 15 18 2 0
BITMAP
f1f0
f7fc
fffc
fffe
fc3e
f81e
f01e
f01e
f01e
f01e
f01e
f01e
f01e
f01e
f01e
f01e
f01e
f01e
ENDCHAR
STARTCHAR 111
ENCODING 111
SWIDTH 600 0
DWIDTH 20 0
BBX 17 18 1 0
BITMAP
07f000
1ffc00
3ffe00
7fff00
7c1f00
f80f80
f80f80
f00780
f00780
f00780
f00780
f80f80
f80f80
7c1f00
7fff00
3ffe00
1ffc00
07f000
ENDCHAR
STARTCHAR 112
ENCODING 112
SWIDTH 600 0
DWIDTH 20 0
BBX 16 25 2 -7
BITMAP
f1f0
f7f8
fffc
fffe
fc3e
f81f
f81f
f00f
f00f
f00f
f00f
f81f
f81f
fc3e
fffe
fffc
f7f8
f1f0
f000
f000
f000
f000
f000
f000
f000
ENDCHAR
STARTCHAR 113
ENCODING 113
SWIDTH 600 0
DWIDTH 20 0
BBX 16 25 1 -7
BITMAP
07cf
1fef
3fff
7fff
7c3f
f81f
f00f
f00f
f00f
f00f
f00f
f00f
f81f
7c3f
7fff
3fff
3fef
0fcf
000f
000f
000f
000f
000f
000f
000f
ENDCHAR
STARTCHAR 114
ENCODING 114
SWIDTH 390 0
DWIDTH 13 0
BBX 10 18 2 0
BITMAP
f0c0
f3c0
f7c0
ffc0
ffc0
fc00
f800
f800
f000
f000
f000
f000
f000
f000
f000
f000
f000
f000
ENDCHAR
STARTCHAR 115
ENCODING 115
SWIDTH 570 0
DWIDTH 19 0
BBX 16 18 1 0
BITMAP
07f0
1ffc
3ffe
7c3e
781f
781f
7c00
7fc0
3ff8
0ffe
03ff
003f
f80f
f80f
7c1f
7ffe
3ffc
0ff0
ENDCHAR
STARTCHAR 116
ENCODING 116
SWIDTH 330 0
DWIDTH 11 0
BBX 9 22 1 0
BITMAP
3c00
3c00
3c00
3c00
ff80
ff80
ff80
3c00
3c00
3c00
3c00
3c00
3c00
3c00
3c00
3c00
3c00
3c00
3f80
3f80
1f80
0f80
ENDCHAR
STARTCHAR 117
ENCODING 117
SWIDTH 600 0
DWIDTH 20 0
BBX 15 18 2 0
BITMAP
f01e
f01e
f01e
f01e
f01e
f01e
f01e
f01e
f01e
f01e
f01e
f01e
f83e
f87e
fffe
7ffe
7fde
1f1e
ENDCHAR
STARTCHAR 118
ENCODING 118
SWIDTH 570 0
DWIDTH 19 0
BBX 17 18 0 0
BITMAP
f80f80
f80f80
7c1f00
7c1f00
3c1e00
3c1e00
3e3e00
1e3c00
1e3c00
1e3c00
0f7800
0f7800
0f7800
07f000
07f000
07f000
03e000
03e000
ENDCHAR
STARTCHAR 119
ENCODING 119
SWIDTH 780 0
DWIDTH 26 0
BBX 25 18 0 0
BITMAP
f83e0f80
f83e0f80
783e0f00
7c3e1f00
7c7f1f00
3c7f1e00
3c7f1e00
3c771e00
3cf79e00
1ee3bc00
1ee3bc00
1ee3bc00
1fe3fc00
0fc1f800
0fc1f800
0fc1f800
0780f000
0780f000
ENDCHAR
STARTCHAR 120
ENCODING 120
SWIDTH 570 0
DWIDTH 19 0
BBX 16 18 1 0
BITMAP
f81f
fc3f
7c3e
3e7c
3e78
1ff8
0ff0
07e0
03c0
07e0
0fe0
0ff0
1ff8
3e78
3e7c
7c3e
fc3f
f81f
ENDCHAR
STARTCHAR 121
ENCODING 121
SWIDTH 570 0
DWIDTH 19 0
BBX 16 25 1 -7
BITMAP
f81f
f81f
f81e
783e
7c3e
7c3c
3c3c
3e7c
3e78
1e78
1e78
1ff0
0ff0
0ff0
0fe0
07e0
07e0
07c0
07c0
07c0
0f80
3f80
3f00
3f00
3c00
ENDCHAR
STARTCHAR 122
ENCODING 122
SWIDTH 510 0
DWIDTH 17 0
BBX 14 18 1 0
BITMAP
fffc
fffc
fffc
fffc
00f8
01f0
03f0
07e0
0fc0
1f80
1f00
3e00
7c00
f800
fffc
fffc
fffc
fffc
ENDCHAR
STARTCHAR 123
ENCODING 123
SWIDTH 390 0
DWIDTH 13 0
BBX 9 32 2 -7
BITMAP
0f80
1f80
3f80
3e00
3c00
3c00
3c00
3c00
3c00
3c00
3c00
3c00
3c00
3c00
7c00
7800
e000
7800
7c00
3c00
3c00
3c00
3c00
3c00
3c00
3c00
3c00
3c00
3c00
3f80
1f80
0f80
ENDCHAR
STARTCHAR 124
ENCODING 124
SWIDTH 270 0
DWIDTH 9 0
BBX 3 31 3 -6
BITMAP
e0
e0
e0
e0
e0
e0
e0
e0
e0
e0
e0
e0
e0
e0
e0
e0
e0
e0
e0
e0
e0
e0
e0
e0
e0
e0
e0
e0
e0
e0
e0
ENDCHAR
STARTCHAR 125
ENCODING 125
SWIDTH 390 0
DWIDTH 13 0
BBX 9 32 2 -7
BITMAP
f800
fc00
fe00
3e00
1e00
1e00
1e00
1e00
1e00
1e00
1e00
1e00
1e00
1e00
1f00
0f00
0380
0f00
1f00
1e00
1e00
1e00
1e00
1e00
1e00
1e00
1e00
1e00
1e00
fe00
fc00
f800
ENDCHAR
STARTCHAR 126
ENCODING 126
SWIDTH 570 0
DWIDTH 19 0
BBX 14 6 2 5
BITMAP
3800
7e0c
ff9c
e7fc
c1f8
0070
ENDCHAR
STARTCHAR 160
ENCODING 160
SWIDTH 270 0
DWIDTH 9 0
BBX 1 1 0 0
BITMAP
00
ENDCHAR
STARTCHAR 161
ENCODING 161
SWIDTH 330 0
DWIDTH 11 0
BBX 5 24 2 -6
BITMAP
f8
f8
f8
f8
f8
00
00
70
70
70
70
70
70
f8
f8
f8
f8
f8
f8
f8
f8
f8
f8
f8
ENDCHAR
STARTCHAR 162
ENCODING 162
SWIDTH 540 0
DWIDTH 18 0
BBX 15 24 1 -3
BITMAP
0020
0020
0060
07f0
1ff8
3ffc
7ffc
7cbe
f89e
f99e
f180
f180
f300
f300
f31e
fa1e
7e3e
7ffc
3ff8
1ff0
0fc0
0c00
0800
0800
ENDCHAR
STARTCHAR 163
ENCODING 163
SWIDTH 540 0
DWIDTH 18 0
BBX 17 24 0 0
BITMAP
03f000
1ffc00
3ffe00
3fff00
7e1f00
7c0f80
7c0f80
7c0780
7c0000
7e0000
3e0000
fff000
fff000
1f0000
0f0000
0f0000
0f0000
1f0000
1e0000
3de300
7fff80
ffff80
ffff00
607e00
ENDCHAR
STARTCHAR 164
ENCODING 164
SWIDTH 540 0
DWIDTH 18 0
BBX 15 15 1 4
BITMAP
e00e
f7de
fffe
7ffc
3c78
783c
701c
701c
701c
783c
3c78
7ffc
fffe
f7de
e00e
ENDCHAR
STARTCHAR 165
ENCODING 165
SWIDTH 540 0
DWIDTH 18 0
BBX 18 24 0 0
BITMAP
f807c0
f807c0
7c0f80
3c0f00
1e1e00
1e1e00
0f3c00
0f3c00
07f800
07f800
03f000
01e000
3fff00
3fff00
01e000
01e000
3fff00
3fff00
01e000
01e000
01e000
01e000
01e000
01e000
ENDCHAR
STARTCHAR 166
ENCODING 166
SWIDTH 270 0
DWIDTH 9 0
BBX 3 31 3 -6
BITMAP
e0
e0
e0
e0
e0
e0
e0
e0
e0
e0
e0
e0
e0
00
00
00
00
00
00
e0
e0
e0
e0
e0
e0
e0
e0
e0
e0
e0
e0
ENDCHAR
STARTCHAR 167
ENCODING 167
SWIDTH 540 0
DWIDTH 18 0
BBX 16 32 1 -7
BITMAP
0ff0
1ff8
3ff8
7e7c
7c3c
7c3c
7e00
7f00
3fc0
1fe0
3ff8
7ffc
71fe
f0ff
f03f
f81f
fc0f
7f0f
7f9f
3ffe
1ff8
07fc
01fe
007e
003e
781e
781e
7c3e
3ffc
3ffc
1ff8
07e0
ENDCHAR
STARTCHAR 168
ENCODING 168
SWIDTH 330 0
DWIDTH 11 0
BBX 10 4 0 21
BITMAP
f3c0
f3c0
f3c0
f3c0
ENDCHAR
STARTCHAR 169
ENCODING 169
SWIDTH 720 0
DWIDTH 24 0
BBX 26 25 0 0
BITMAP
007f8000
03ffe000
0780f800
1f003c00
1c000e00
38000700
703f0300
707f8380
e0f3c180
e1c0e1c0
c1c0e0c0
c38000c0
c38000c0
c38000c0
c38000c0
c1c0e0c0
e1c0e1c0
e0f3c380
607f8380
703f0700
38000e00
1e003c00
0f80f800
07ffe000
01ff8000
ENDCHAR
STARTCHAR 170
ENCODING 170
SWIDTH 360 0
DWIDTH 12 0
BBX 9 16 1 9
BITMAP
3e00
7f00
e380
c380
1f80
7f80
f380
e380
e380
ff80
7b80
0000
0000
ff80
ff80
ff80
ENDCHAR
STARTCHAR 171
ENCODING 171
SWIDTH 540 0
DWIDTH 18 0
BBX 12 13 3 2
BITMAP
0810
1830
3870
78f0
f1e0
e1c0
e1c0
f1e0
f9f0
78f0
3870
1830
0810
ENDCHAR
STARTCHAR 172
ENCODING 172
SWIDTH 570 0
DWIDTH 19 0
BBX 16 10 1 4
BITMAP
ffff
ffff
ffff
ffff
000f
000f
000f
000f
000f
000f
ENDCHAR
STARTCHAR 173
ENCODING 173
SWIDTH 330 0
DWIDTH 11 0
BBX 9 5 1 7
BITMAP
ff80
ff80
ff80
ff80
ff80
ENDCHAR
STARTCHAR 174
ENCODING 174
SWIDTH 720 0
DWIDTH 24 0
BBX 26 25 0 0
BITMAP
00ff8000
03ffe000
0780f800
1e003c00
1c000e00
38ff8700
70ffc300
70e1e380
e0e0e180
e0e0e180
c0e0e1c0
c0e1c1c0
c0ff81c0
c0ff01c0
c0e381c0
c0e3c1c0
e0e1c180
e0e0e380
70e0f380
70e07700
38000e00
1e001c00
0f807800
07ffe000
01ff8000
ENDCHAR
STARTCHAR 175
ENCODING 175
SWIDTH 330 0
DWIDTH 11 0
BBX 10 3 0 21
BITMAP
ffc0
ffc0
ffc0
ENDCHAR
STARTCHAR 176
ENCODING 176
SWIDTH 390 0
DWIDTH 13 0
BBX 9 10 2 14
BITMAP
3e00
7f00
6300
c180
c180
c180
c180
6300
7f00
3e00
ENDCHAR
STARTCHAR 177
ENCODING 177
SWIDTH 570 0
DWIDTH 19 0
BBX 16 22 1 0
BITMAP
03c0
03c0
03c0
03c0
03c0
03c0
ffff
ffff
ffff
ffff
03c0
03c0
03c0
03c0
03c0
03c0
0000
0000
ffff
ffff
ffff
ffff
ENDCHAR
STARTCHAR 178
ENCODING 178
SWIDTH 330 0
DWIDTH 11 0
BBX 10 15 0 9
BITMAP
3f00
7f80
f3c0
e1c0
e1c0
01c0
03c0
0780
0f00
3e00
7800
7000
ffc0
ffc0
ffc0
ENDCHAR
STARTCHAR 179
ENCODING 179
SWIDTH 330 0
DWIDTH 11 0
BBX 10 15 0 9
BITMAP
1e00
7f80
f3c0
e1c0
e1c0
03c0
0f80
0f80
03c0
01c0
e1c0
e1c0
f3c0
7f80
3e00
ENDCHAR
STARTCHAR 180
ENCODING 180
SWIDTH 330 0
DWIDTH 11 0
BBX 6 5 4 20
BITMAP
3c
78
70
e0
e0
ENDCHAR
STARTCHAR 181
ENCODING 181
SWIDTH 600 0
DWIDTH 20 0
BBX 15 25 2 -7
BITMAP
f01e
f01e
f01e
f01e
f01e
f01e
f01e
f01e
f01e
f01e
f01e
f01e
f83e
f87e
fffe
fffe
ffde
f79e
f000
f000
f000
f000
f000
f000
f000
ENDCHAR
STARTCHAR 182
ENCODING 182
SWIDTH 540 0
DWIDTH 18 0
BBX 17 31 0 -6
BITMAP
0fff80
1fff80
3f8c00
7f8c00
7f8c00
ff8c00
ff8c00
ff8c00
ff8c00
ff8c00
7f8c00
7f8c00
3f8c00
3f8c00
0f8c00
018c00
018c00
018c00
018c00
018c00
018c00
018c00
018c00
018c00
018c00
018c00
018c00
018c00
018c00
018c00
018c00
ENDCHAR
STARTCHAR 183
ENCODING 183
SWIDTH 270 0
DWIDTH 9 0
BBX 4 5 2 11
BITMAP
60
f0
f0
f0
60
ENDCHAR
STARTCHAR 184
ENCODING 184
SWIDTH 330 0
DWIDTH 11 0
BBX 7 8 2 -7
BITMAP
30
30
30
7c
1e
0e
fc
f8
ENDCHAR
STARTCHAR 185
ENCODING 185
SWIDTH 330 0
DWIDTH 11 0
BBX 6 15 2 9
BITMAP
1c
3c
fc
fc
1c
1c
1c
1c
1c
1c
1c
1c
1c
1c
1c
ENDCHAR
STARTCHAR 186
ENCODING 186
SWIDTH 360 0
DWIDTH 12 0
BBX 10 16 1 9
BITMAP
3f00
7f80
7380
e1c0
e1c0
e1c0
e1c0
e1c0
7380
7f80
3f00
0000
0000
ffc0
ffc0
ffc0
ENDCHAR
STARTCHAR 187
ENCODING 187
SWIDTH 540 0
DWIDTH 18 0
BBX 12 12 3 3
BITMAP
8100
c180
e1c0
f1e0
78f0
3870
3870
78f0
f1e0
e1c0
c180
8100
ENDCHAR
STARTCHAR 188
ENCODING 188
SWIDTH 840 0
DWIDTH 28 0
BBX 26 24 0 0
BITMAP
00003800
06007000
1e007000
fe00e000
fe01c000
0e01c000
0e038000
0e038000
0e070000
0e070000
0e0e0700
0e1c0f00
0e1c1f00
0e381f00
00383700
00706700
0070e700
00e0c700
01c18700
01c1ffc0
0381ffc0
03800700
07000700
07000700
ENDCHAR
STARTCHAR 189
ENCODING 189
SWIDTH 840 0
DWIDTH 28 0
BBX 25 24 1 0
BITMAP
0000e000
0c01c000
1c01c000
fc038000
fc038000
1c070000
1c0e0000
1c0e0000
1c1c0000
1c1c0000
1c387e00
1c30ff00
1c71e780
1ce1c380
00e1c380
01c00780
01c00f00
03801e00
07003c00
07007800
0e00f000
0e01ff80
1c01ff80
1c01ff80
ENDCHAR
STARTCHAR 190
ENCODING 190
SWIDTH 810 0
DWIDTH 27 0
BBX 25 24 1 0
BITMAP
3f001c00
7f803800
f3c03800
e1c07000
e1c0e000
03c0e000
0f81c000
0f81c000
0fc38000
01c70000
e1c70e00
e1ce1e00
f3ce1e00
7f9c3e00
3f1c7e00
0038ee00
0070ce00
00718e00
00e38e00
00e3ff80
01c3ff80
01c00e00
03800e00
03800e00
ENDCHAR
STARTCHAR 191
ENCODING 191
SWIDTH 600 0
DWIDTH 20 0
BBX 16 24 1 -6
BITMAP
03e0
03e0
03e0
03e0
0000
0000
03c0
03c0
03c0
07c0
1f80
3f80
7f00
7e00
fc00
f80f
f80f
f80f
fc1f
7e7f
7ffe
3ffe
3ffc
0ff0
ENDCHAR
STARTCHAR 192
ENCODING 192
SWIDTH 690 0
DWIDTH 23 0
BBX 22 31 0 0
BITMAP
03c000
01e000
00f000
007800
003c00
000000
00fc00
00fc00
01fe00
01fe00
01fe00
03ff00
03ff00
03ff00
07cf80
07cf80
07cf80
0f8780
0f87c0
0f87c0
1f03c0
1f03e0
1fffe0
1fffe0
3ffff0
3ffff0
3e01f0
7c00f8
7c00f8
fc00fc
f8007c
ENDCHAR
STARTCHAR 193
ENCODING 193
SWIDTH 690 0
DWIDTH 23 0
BBX 22 31 0 0
BITMAP
000f00
001e00
003c00
007800
00f000
000000
00fc00
00fc00
01fe00
01fe00
01fe00
03ff00
03ff00
03ff00
07cf80
07cf80
07cf80
0f8780
0f87c0
0f87c0
1f03c0
1f03e0
1fffe0
1fffe0
3ffff0
3ffff0
3e01f0
7c00f8
7c00f8
fc00fc
f8007c
ENDCHAR
STARTCHAR 194
ENCODING 194
SWIDTH 690 0
DWIDTH 23 0
BBX 22 31 0 0
BITMAP
003000
007800
00fc00
01ce00
038700
000000
00fc00
00fc00
01fe00
01fe00
01fe00
03ff00
03ff00
03ff00
07cf80
07cf80
07cf80
0f8780
0f87c0
0f87c0
1f03c0
1f03e0
1fffe0
1fffe0
3ffff0
3ffff0
3e01f0
7c00f8
7c00f8
fc00fc
f8007c
ENDCHAR
STARTCHAR 195
ENCODING 195
SWIDTH 690 0
DWIDTH 23 0
BBX 22 30 0 0
BITMAP
00f180
01ff80
03ff00
031e00
000000
00fc00
00fc00
01fe00
01fe00
01fe00
03ff00
03ff00
03ff00
07cf80
07cf80
07cf80
0f8780
0f87c0
0f87c0
1f03c0
1f03e0
1fffe0
1fffe0
3ffff0
3ffff0
3e01f0
7c00f8
7c00f8
fc00fc
f8007c
ENDCHAR
STARTCHAR 196
ENCODING 196
SWIDTH 690 0
DWIDTH 23 0
BBX 22 31 0 0
BITMAP
03cf00
03cf00
03cf00
03cf00
000000
000000
00fc00
00fc00
01fe00
01fe00
01fe00
03ff00
03ff00
03ff00
07cf80
07cf80
07cf80
0f8780
0f87c0
0f87c0
1f03c0
1f03e0
1fffe0
1fffe0
3ffff0
3ffff0
3e01f0
7c00f8
7c00f8
fc00fc
f8007c
ENDCHAR
STARTCHAR 197
ENCODING 197
SWIDTH 690 0
DWIDTH 23 0
BBX 22 31 0 0
BITMAP
007800
00cc00
008400
008400
00cc00
007800
000000
00fc00
01fe00
01fe00
01fe00
03ff00
03ff00
03ff00
07cf80
07cf80
07cf80
0f8780
0f87c0
0f87c0
1f03c0
1f03e0
1fffe0
1fffe0
3ffff0
3ffff0
3e01f0
7c00f8
7c00f8
fc00fc
f8007c
ENDCHAR
STARTCHAR 198
ENCODING 198
SWIDTH 960 0
DWIDTH 32 0
BBX 31 25 0 0
BITMAP
00fffffc
00fffffc
00fffffc
01fffffc
01f3c000
01e3c000
03e3c000
03e3c000
03c3c000
07c3c000
07c3c000
07c3fff8
0f83fff8
0f83fff8
0f83fff8
1f03c000
1fffc000
1fffc000
3fffc000
3fffc000
3e03c000
7c03fffe
7c03fffe
f803fffe
f803fffe
ENDCHAR
STARTCHAR 199
ENCODING 199
SWIDTH 690 0
DWIDTH 23 0
BBX 21 32 1 -7
BITMAP
01fe00
07ff80
0fffc0
1fffe0
3f87f0
3e01f0
7c01f0
7c00f8
7c00f8
f80000
f80000
f80000
f80000
f80000
f80000
f80000
7c00f8
7c00f8
7e01f8
3e01f0
3f87f0
1fffe0
0fffc0
07ff80
01fc00
006000
006000
00f800
001c00
001c00
01f800
01f000
ENDCHAR
STARTCHAR 200
ENCODING 200
SWIDTH 660 0
DWIDTH 22 0
BBX 18 31 2 0
BITMAP
1e0000
0f0000
078000
03c000
01e000
000000
ffff80
ffff80
ffff80
ffff80
f80000
f80000
f80000
f80000
f80000
f80000
ffff00
ffff00
ffff00
ffff00
f80000
f80000
f80000
f80000
f80000
f80000
f80000
ffffc0
ffffc0
ffffc0
ffffc0
ENDCHAR
STARTCHAR 201
ENCODING 201
SWIDTH 660 0
DWIDTH 22 0
BBX 18 31 2 0
BITMAP
007800
00f000
01e000
03c000
078000
000000
ffff80
ffff80
ffff80
ffff80
f80000
f80000
f80000
f80000
f80000
f80000
ffff00
ffff00
ffff00
ffff00
f80000
f80000
f80000
f80000
f80000
f80000
f80000
ffffc0
ffffc0
ffffc0
ffffc0
ENDCHAR
STARTCHAR 202
ENCODING 202
SWIDTH 660 0
DWIDTH 22 0
BBX 18 31 2 0
BITMAP
00c000
01e000
03f000
073800
0e1c00
000000
ffff80
ffff80
ffff80
ffff80
f80000
f80000
f80000
f80000
f80000
f80000
ffff00
ffff00
ffff00
ffff00
f80000
f80000
f80000
f80000
f80000
f80000
f80000
ffffc0
ffffc0
ffffc0
ffffc0
ENDCHAR
STARTCHAR 203
ENCODING 203
SWIDTH 660 0
DWIDTH 22 0
BBX 18 31 2 0
BITMAP
1e3c00
1e3c00
1e3c00
1e3c00
000000
000000
ffff80
ffff80
ffff80
ffff80
f80000
f80000
f80000
f80000
f80000
f80000
ffff00
ffff00
ffff00
ffff00
f80000
f80000
f80000
f80000
f80000
f80000
f80000
ffffc0
ffffc0
ffffc0
ffffc0
ENDCHAR
STARTCHAR 204
ENCODING 204
SWIDTH 270 0
DWIDTH 9 0
BBX 8 31 0 0
BITMAP
f0
78
3c
1e
0f
00
3e
3e
3e
3e
3e
3e
3e
3e
3e
3e
3e
3e
3e
3e
3e
3e
3e
3e
3e
3e
3e
3e
3e
3e
3e
ENDCHAR
STARTCHAR 205
ENCODING 205
SWIDTH 270 0
DWIDTH 9 0
BBX 8 31 2 0
BITMAP
0f
1e
3c
78
f0
00
f8
f8
f8
f8
f8
f8
f8
f8
f8
f8
f8
f8
f8
f8
f8
f8
f8
f8
f8
f8
f8
f8
f8
f8
f8
ENDCHAR
STARTCHAR 206
ENCODING 206
SWIDTH 270 0
DWIDTH 9 0
BBX 10 31 0 0
BITMAP
0c00
1e00
3f00
7380
e1c0
0000
3e00
3e00
3e00
3e00
3e00
3e00
3e00
3e00
3e00
3e00
3e00
3e00
3e00
3e00
3e00
3e00
3e00
3e00
3e00
3e00
3e00
3e00
3e00
3e00
3e00
ENDCHAR
STARTCHAR 207
ENCODING 207
SWIDTH 270 0
DWIDTH 9 0
BBX 10 31 0 0
BITMAP
f3c0
f3c0
f3c0
f3c0
0000
0000
3e00
3e00
3e00
3e00
3e00
3e00
3e00
3e00
3e00
3e00
3e00
3e00
3e00
3e00
3e00
3e00
3e00
3e00
3e00
3e00
3e00
3e00
3e00
3e00
3e00
ENDCHAR
STARTCHAR 208
ENCODING 208
SWIDTH 690 0
DWIDTH 23 0
BBX 23 25 -1 0
BITMAP
1fff80
1fffe0
1ffff0
1ffff8
1f07f8
1f00fc
1f00fc
1f007c
1f007e
1f003e
1f003e
fff03e
fff03e
fff03e
1f003e
1f003e
1f007c
1f007c
1f007c
1f00f8
1f03f8
1ffff0
1ffff0
1fffc0
1fff80
ENDCHAR
STARTCHAR 209
ENCODING 209
SWIDTH 720 0
DWIDTH 24 0
BBX 19 30 2 0
BITMAP
03c600
07fe00
0ffc00
0c7800
000000
f803e0
fc03e0
fc03e0
fe03e0
fe03e0
ff03e0
ff03e0
ff83e0
ffc3e0
fbc3e0
fbe3e0
f9e3e0
f9f3e0
f8f3e0
f8fbe0
f87be0
f83fe0
f83fe0
f81fe0
f81fe0
f80fe0
f80fe0
f807e0
f807e0
f803e0
ENDCHAR
STARTCHAR 210
ENCODING 210
SWIDTH 750 0
DWIDTH 25 0
BBX 23 31 1 0
BITMAP
01e000
00f000
007800
003c00
001e00
000000
01ff00
07ffc0
0fffe0
1ffff0
3fc7f8
3f01f8
7e00fc
7c007c
7c007c
f8003e
f8003e
f8003e
f8003e
f8003e
f8003e
f8003e
7c007c
7c007c
7e00fc
3f01f8
3fc7f8
1ffff0
0fffe0
07ffc0
01ff00
ENDCHAR
STARTCHAR 211
ENCODING 211
SWIDTH 750 0
DWIDTH 25 0
BBX 23 31 1 0
BITMAP
000780
000f00
001e00
003c00
007800
000000
01ff00
07ffc0
0fffe0
1ffff0
3fc7f8
3f01f8
7e00fc
7c007c
7c007c
f8003e
f8003e
f8003e
f8003e
f8003e
f8003e
f8003e
7c007c
7c007c
7e00fc
3f01f8
3fc7f8
1ffff0
0fffe0
07ffc0
01ff00
ENDCHAR
STARTCHAR 212
ENCODING 212
SWIDTH 750 0
DWIDTH 25 0
BBX 23 31 1 0
BITMAP
001800
003c00
007e00
00e700
01c380
000000
01ff00
07ffc0
0fffe0
1ffff0
3fc7f8
3f01f8
7e00fc
7c007c
7c007c
f8003e
f8003e
f8003e
f8003e
f8003e
f8003e
f8003e
7c007c
7c007c
7e00fc
3f01f8
3fc7f8
1ffff0
0fffe0
07ffc0
01ff00
ENDCHAR
STARTCHAR 213
ENCODING 213
SWIDTH 750 0
DWIDTH 25 0
BBX 23 30 1 0
BITMAP
0078c0
00ffc0
01ff80
018f00
000000
01ff00
07ffc0
0fffe0
1ffff0
3fc7f8
3f01f8
7e00fc
7c007c
7c007c
f8003e
f8003e
f8003e
f8003e
f8003e
f8003e
f8003e
7c007c
7c007c
7e00fc
3f01f8
3fc7f8
1ffff0
0fffe0
07ffc0
01ff00
ENDCHAR
STARTCHAR 214
ENCODING 214
SWIDTH 750 0
DWIDTH 25 0
BBX 23 31 1 0
BITMAP
01e780
01e780
01e780
01e780
000000
000000
01ff00
07ffc0
0fffe0
1ffff0
3fc7f8
3f01f8
7e00fc
7c007c
7c007c
f8003e
f8003e
f8003e
f8003e
f8003e
f8003e
f8003e
7c007c
7c007c
7e00fc
3f01f8
3fc7f8
1ffff0
0fffe0
07ffc0
01ff00
ENDCHAR
STARTCHAR 215
ENCODING 215
SWIDTH 570 0
DWIDTH 19 0
BBX 15 16 2 0
BITMAP
2008
701c
f83e
fc7e
7efc
3ff8
1ff0
0fe0
0fe0
1ff0
3ff8
7efc
fc7e
f83e
701c
2008
ENDCHAR
STARTCHAR 216
ENCODING 216
SWIDTH 750 0
DWIDTH 25 0
BBX 24 25 1 0
BITMAP
01ff07
07ffce
0ffffc
1ffff8
3fc7f8
3f00f8
7e01fc
7c03fc
7c07bc
f8073e
f80e3e
f81c3e
f8383e
f8703e
f8e03e
f8e03e
7dc07c
7f807c
7f00fc
3f01f8
3fc7f8
3ffff0
3fffe0
77ffc0
e1ff00
ENDCHAR
STARTCHAR 217
ENCODING 217
SWIDTH 720 0
DWIDTH 24 0
BBX 19 31 2 0
BITMAP
078000
03c000
01e000
00f000
007800
000000
f803e0
f803e0
f803e0
f803e0
f803e0
f803e0
f803e0
f803e0
f803e0
f803e0
f803e0
f803e0
f803e0
f803e0
f803e0
f803e0
f803e0
f803e0
f803e0
fc07e0
7f1fc0
7fffc0
3fff80
1fff00
07fc00
ENDCHAR
STARTCHAR 218
ENCODING 218
SWIDTH 720 0
DWIDTH 24 0
BBX 19 31 2 0
BITMAP
001e00
003c00
007800
00f000
01e000
000000
f803e0
f803e0
f803e0
f803e0
f803e0
f803e0
f803e0
f803e0
f803e0
f803e0
f803e0
f803e0
f803e0
f803e0
f803e0
f803e0
f803e0
f803e0
f803e0
fc07e0
7f1fc0
7fffc0
3fff80
1fff00
07fc00
ENDCHAR
STARTCHAR 219
ENCODING 219
SWIDTH 720 0
DWIDTH 24 0
BBX 19 31 2 0
BITMAP
006000
00f000
01f800
039c00
070e00
000000
f803e0
f803e0
f803e0
f803e0
f803e0
f803e0
f803e0
f803e0
f803e0
f803e0
f803e0
f803e0
f803e0
f803e0
f803e0
f803e0
f803e0
f803e0
f803e0
fc07e0
7f1fc0
7fffc0
3fff80
1fff00
07fc00
ENDCHAR
STARTCHAR 220
ENCODING 220
SWIDTH 720 0
DWIDTH 24 0
BBX 19 31 2 0
BITMAP
0f1e00
0f1e00
0f1e00
0f1e00
000000
000000
f803e0
f803e0
f803e0
f803e0
f803e0
f803e0
f803e0
f803e0
f803e0
f803e0
f803e0
f803e0
f803e0
f803e0
f803e0
f803e0
f803e0
f803e0
f803e0
fc07e0
7f1fc0
7fffc0
3fff80
1fff00
07fc00
ENDCHAR
STARTCHAR 221
ENCODING 221
SWIDTH 660 0
DWIDTH 22 0
BBX 20 31 1 0
BITMAP
001e00
003c00
007800
00f000
01e000
000000
fc03f0
fc03f0
7e07e0
3e07c0
3f0fc0
3f0f80
1f0f80
1f9f00
0f9f00
0ffe00
07fe00
07fc00
03fc00
03f800
03f800
01f000
01f000
01f000
01f000
01f000
01f000
01f000
01f000
01f000
01f000
ENDCHAR
STARTCHAR 222
ENCODING 222
SWIDTH 660 0
DWIDTH 22 0
BBX 18 25 2 0
BITMAP
f80000
f80000
f80000
fff800
fffe00
ffff00
ffff80
f81f80
f80fc0
f807c0
f807c0
f807c0
f807c0
f80fc0
f81f80
ffff80
ffff00
fffe00
fffc00
f80000
f80000
f80000
f80000
f80000
f80000
ENDCHAR
STARTCHAR 223
ENCODING 223
SWIDTH 600 0
DWIDTH 20 0
BBX 17 25 2 0
BITMAP
0fc000
3ff000
7ffc00
fffc00
f87e00
f83e00
f03e00
f03e00
f07c00
f0fc00
f1f800
f1fc00
f1fe00
f07f00
f01f00
f01f80
f00f80
f00f80
f00f80
f01f80
f03f00
f1ff00
f1fe00
f1fc00
f1f000
ENDCHAR
STARTCHAR 224
ENCODING 224
SWIDTH 540 0
DWIDTH 18 0
BBX 15 25 1 0
BITMAP
0f00
0780
0380
01c0
00e0
0000
0000
0ff0
3ffc
7ffc
7c3e
f81e
f81e
01fe
0ffe
3ffe
7f1e
f81e
f01e
f03e
f87e
fffe
fffe
7fde
3f1e
ENDCHAR
STARTCHAR 225
ENCODING 225
SWIDTH 540 0
DWIDTH 18 0
BBX 15 25 1 0
BITMAP
0078
00f0
00e0
01c0
0380
0000
0000
0ff0
3ffc
7ffc
7c3e
f81e
f81e
01fe
0ffe
3ffe
7f1e
f81e
f01e
f03e
f87e
fffe
fffe
7fde
3f1e
ENDCHAR
STARTCHAR 226
ENCODING 226
SWIDTH 540 0
DWIDTH 18 0
BBX 15 25 1 0
BITMAP
0180
03c0
07e0
0e70
1c38
0000
0000
0ff0
3ffc
7ffc
7c3e
f81e
f81e
01fe
0ffe
3ffe
7f1e
f81e
f01e
f03e
f87e
fffe
fffe
7fde
3f1e
ENDCHAR
STARTCHAR 227
ENCODING 227
SWIDTH 540 0
DWIDTH 18 0
BBX 15 24 1 0
BITMAP
078c
0ffc
1ff8
18f0
0000
0000
0ff0
3ffc
7ffc
7c3e
f81e
f81e
01fe
0ffe
3ffe
7f1e
f81e
f01e
f03e
f87e
fffe
fffe
7fde
3f1e
ENDCHAR
STARTCHAR 228
ENCODING 228
SWIDTH 540 0
DWIDTH 18 0
BBX 15 24 1 0
BITMAP
1e78
1e78
1e78
1e78
0000
0000
0ff0
3ffc
7ffc
7c3e
f81e
f81e
01fe
0ffe
3ffe
7f1e
f81e
f01e
f03e
f87e
fffe
fffe
7fde
3f1e
ENDCHAR
STARTCHAR 229
ENCODING 229
SWIDTH 540 0
DWIDTH 18 0
BBX 15 25 1 0
BITMAP
03c0
0660
0420
0420
0660
03c0
0000
0ff0
3ffc
7ffc
7c3e
f81e
f81e
01fe
0ffe
3ffe
7f1e
f81e
f81e
f03e
f87e
fffe
fffe
7fde
3f1e
ENDCHAR
STARTCHAR 230
ENCODING 230
SWIDTH 870 0
DWIDTH 29 0
BBX 26 19 1 0
BITMAP
07e0f800
1ffbfe00
3fffff00
3fffff00
7c3f0f80
781e0780
781e07c0
003e07c0
07ffffc0
3fffffc0
7fffffc0
7c1e0000
f81e0000
f81e07c0
fc3f0fc0
ffffff80
7ff7ff00
3fe3fe00
0f81f800
ENDCHAR
STARTCHAR 231
ENCODING 231
SWIDTH 540 0
DWIDTH 18 0
BBX 15 25 1 -7
BITMAP
07e0
1ff8
3ffc
3ffc
7c3e
781e
f81e
f000
f000
f000
f000
f81e
f81e
7c3e
7ffc
3ff8
1ff8
07e0
0300
0300
07c0
00e0
00e0
0fc0
0f80
ENDCHAR
STARTCHAR 232
ENCODING 232
SWIDTH 540 0
DWIDTH 18 0
BBX 16 25 1 0
BITMAP
0f00
0780
0380
01c0
00e0
0000
0000
07e0
1ff8
3ffc
7ffe
7c3e
f81e
f01f
ffff
ffff
ffff
f000
f000
f81e
7c3e
7ffe
3ffc
1ff0
07c0
ENDCHAR
STARTCHAR 233
ENCODING 233
SWIDTH 540 0
DWIDTH 18 0
BBX 16 25 1 0
BITMAP
0078
00f0
00e0
01c0
0380
0000
0000
07e0
1ff8
3ffc
7ffe
7c3e
f81e
f01f
ffff
ffff
ffff
f000
f000
f81e
7c3e
7ffe
3ffc
1ff0
07c0
ENDCHAR
STARTCHAR 234
ENCODING 234
SWIDTH 540 0
DWIDTH 18 0
BBX 16 25 1 0
BITMAP
0180
03c0
07e0
0e70
1c38
0000
0000
07e0
1ff8
3ffc
7ffe
7c3e
f81e
f01f
ffff
ffff
ffff
f000
f000
f81e
7c3e
7ffe
3ffc
1ff0
07c0
ENDCHAR
STARTCHAR 235
ENCODING 235
SWIDTH 540 0
DWIDTH 18 0
BBX 16 24 1 0
BITMAP
1e78
1e78
1e78
1e78
0000
0000
07e0
1ff8
3ffc
7ffe
7c3e
f81e
f01f
ffff
ffff
ffff
f000
f000
f81e
7c3e
7ffe
3ffc
1ff0
07c0
ENDCHAR
STARTCHAR 236
ENCODING 236
SWIDTH 270 0
DWIDTH 9 0
BBX 7 25 1 0
BITMAP
f0
78
38
1c
0e
00
00
1e
1e
1e
1e
1e
1e
1e
1e
1e
1e
1e
1e
1e
1e
1e
1e
1e
1e
ENDCHAR
STARTCHAR 237
ENCODING 237
SWIDTH 270 0
DWIDTH 9 0
BBX 6 25 2 0
BITMAP
3c
38
70
70
e0
00
00
f0
f0
f0
f0
f0
f0
f0
f0
f0
f0
f0
f0
f0
f0
f0
f0
f0
f0
ENDCHAR
STARTCHAR 238
ENCODING 238
SWIDTH 270 0
DWIDTH 9 0
BBX 10 25 -1 0
BITMAP
0c00
1e00
3f00
7380
e1c0
0000
0000
1e00
1e00
1e00
1e00
1e00
1e00
1e00
1e00
1e00
1e00
1e00
1e00
1e00
1e00
1e00
1e00
1e00
1e00
ENDCHAR
STARTCHAR 239
ENCODING 239
SWIDTH 270 0
DWIDTH 9 0
BBX 10 24 -1 0
BITMAP
f3c0
f3c0
f3c0
f3c0
0000
0000
1e00
1e00
1e00
1e00
1e00
1e00
1e00
1e00
1e00
1e00
1e00
1e00
1e00
1e00
1e00
1e00
1e00
1e00
ENDCHAR
STARTCHAR 240
ENCODING 240
SWIDTH 600 0
DWIDTH 20 0
BBX 17 26 1 0
BITMAP
300000
782000
7cf000
3fe000
1fc000
3fe000
73f000
21f800
07fc00
1ffe00
3ffe00
7fff00
7c1f00
f80f80
f80f80
f00780
f00780
f00780
f80f80
f80f80
fc1f80
7e3f00
7fff00
3ffe00
1ffc00
07f000
ENDCHAR
STARTCHAR 241
ENCODING 241
SWIDTH 600 0
DWIDTH 20 0
BBX 15 24 2 0
BITMAP
0f18
1ff8
3ff0
31e0
0000
0000
f3f0
f7f8
fffc
fffe
fc3e
f83e
f01e
f01e
f01e
f01e
f01e
f01e
f01e
f01e
f01e
f01e
f01e
f01e
ENDCHAR
STARTCHAR 242
ENCODING 242
SWIDTH 600 0
DWIDTH 20 0
BBX 17 25 1 0
BITMAP
078000
03c000
01c000
01e000
00f000
000000
000000
07f000
1ffc00
3ffe00
7fff00
7c1f00
f80f80
f80f80
f00780
f00780
f00780
f00780
f80f80
f80f80
7c1f00
7fff00
3ffe00
1ffc00
07f000
ENDCHAR
STARTCHAR 243
ENCODING 243
SWIDTH 600 0
DWIDTH 20 0
BBX 17 25 1 0
BITMAP
007800
00f000
00e000
01c000
03c000
000000
000000
07f000
1ffc00
3ffe00
7fff00
7c1f00
f80f80
f80f80
f00780
f00780
f00780
f00780
f80f80
f80f80
7c1f00
7fff00
3ffe00
1ffc00
07f000
ENDCHAR
STARTCHAR 244
ENCODING 244
SWIDTH 600 0
DWIDTH 20 0
BBX 17 25 1 0
BITMAP
00c000
01e000
03f000
073800
0e1c00
000000
000000
07f000
1ffc00
3ffe00
7fff00
7c1f00
f80f80
f80f80
f00780
f00780
f00780
f00780
f80f80
f80f80
7c1f00
7fff00
3ffe00
1ffc00
07f000
ENDCHAR
STARTCHAR 245
ENCODING 245
SWIDTH 600 0
DWIDTH 20 0
BBX 17 24 1 0
BITMAP
078c00
0ffc00
1ff800
18f000
000000
000000
07f000
1ffc00
3ffe00
7fff00
7c1f00
f80f80
f80f80
f00780
f00780
f00780
f00780
f80f80
f80f80
7c1f00
7fff00
3ffe00
1ffc00
07f000
ENDCHAR
STARTCHAR 246
ENCODING 246
SWIDTH 600 0
DWIDTH 20 0
BBX 17 24 1 0
BITMAP
1e3c00
1e3c00
1e3c00
1e3c00
000000
000000
07f000
1ffc00
3ffe00
7fff00
7c1f00
f80f80
f80f80
f00780
f00780
f00780
f00780
f80f80
f80f80
7c1f00
7fff00
3ffe00
1ffc00
07f000
ENDCHAR
STARTCHAR 247
ENCODING 247
SWIDTH 570 0
DWIDTH 19 0
BBX 16 16 1 0
BITMAP
03c0
03c0
03c0
03c0
0000
0000
ffff
ffff
ffff
ffff
0000
0000
03c0
03c0
03c0
03c0
ENDCHAR
STARTCHAR 248
ENCODING 248
SWIDTH 600 0
DWIDTH 20 0
BBX 21 18 -1 0
BITMAP
01fc38
07ff70
0fffe0
1fffc0
1f8fc0
3e07e0
3e0fe0
3c1de0
3c39e0
3c71e0
3ee3e0
3f83e0
3f07e0
1f8fc0
1fffc0
3fff80
77ff00
e1fc00
ENDCHAR
STARTCHAR 249
ENCODING 249
SWIDTH 600 0
DWIDTH 20 0
BBX 15 25 2 0
BITMAP
1e00
0f00
0700
0380
01c0
0000
0000
f01e
f01e
f01e
f01e
f01e
f01e
f01e
f01e
f01e
f01e
f01e
f01e
f83e
f87e
fffe
7ffe
7fde
1f1e
ENDCHAR
STARTCHAR 250
ENCODING 250
SWIDTH 600 0
DWIDTH 20 0
BBX 15 25 2 0
BITMAP
00f0
01e0
01c0
0380
0700
0000
0000
f01e
f01e
f01e
f01e
f01e
f01e
f01e
f01e
f01e
f01e
f01e
f01e
f83e
f87e
fffe
7ffe
7fde
1f1e
ENDCHAR
STARTCHAR 251
ENCODING 251
SWIDTH 600 0
DWIDTH 20 0
BBX 15 25 2 0
BITMAP
0300
0780
0fc0
1ce0
3870
0000
0000
f01e
f01e
f01e
f01e
f01e
f01e
f01e
f01e
f01e
f01e
f01e
f01e
f83e
f87e
fffe
7ffe
7fde
1f1e
ENDCHAR
STARTCHAR 252
ENCODING 252
SWIDTH 600 0
DWIDTH 20 0
BBX 15 25 2 0
BITMAP
3c78
3c78
3c78
3c78
0000
0000
0000
f01e
f01e
f01e
f01e
f01e
f01e
f01e
f01e
f01e
f01e
f01e
f01e
f83e
f87e
fffe
7ffe
7fde
1f1e
ENDCHAR
STARTCHAR 253
ENCODING 253
SWIDTH 570 0
DWIDTH 19 0
BBX 16 32 1 -7
BITMAP
0078
00f0
01e0
01c0
0380
0000
0000
f81f
f81f
f81f
781e
7c3e
7c3c
3c3c
3c3c
3e78
3e78
1e78
1ff0
1ff0
0ff0
0fe0
07e0
07e0
07c0
07c0
07c0
0f80
3f80
3f00
3f00
3c00
ENDCHAR
STARTCHAR 254
ENCODING 254
SWIDTH 600 0
DWIDTH 20 0
BBX 16 32 2 -7
BITMAP
f000
f000
f000
f000
f000
f000
f000
f3f0
f7fc
fffe
fffe
fc3f
f81f
f81f
f00f
f00f
f00f
f00f
f81f
f81f
fc3e
fffe
fffc
f7f8
f1f0
f000
f000
f000
f000
f000
f000
f000
ENDCHAR
STARTCHAR 255
ENCODING 255
SWIDTH 570 0
DWIDTH 19 0
BBX 16 31 1 -7
BITMAP
1e78
1e78
1e78
1e78
0000
0000
f81f
f81f
f81f
783e
7c3e
7c3c
7c3c
3e7c
3e78
3e78
1e78
1ff0
1ff0
0ff0
0fe0
07e0
07e0
07c0
07c0
07c0
0f80
3f80
3f00
3f00
3c00
ENDCHAR
ENDFONT
